# Blender v2.80 (sub 75) OBJ File: 'scene.blend'
# www.blender.org
mtllib board.mtl
o Cube.002
v 75.320915 -44.909805 20.093678
v 67.151588 -45.584064 20.093678
v 67.151588 -44.909805 20.093678
v 75.612274 -44.909805 20.628731
v 66.860222 -45.852959 20.628731
v 75.612274 -45.852959 20.628731
v 66.860222 -44.909805 20.628731
v 66.860222 -45.852959 10.716390
v 75.612274 -45.852959 10.716390
v 75.612274 -44.909805 10.716390
v 66.860222 -44.909805 10.716390
v 75.320915 -44.909805 11.251445
v 67.151588 -44.909805 11.251445
v 67.151588 -45.584064 11.251445
v 75.320915 -45.584064 11.251445
v 75.320915 -45.584064 20.093678
vt 0.388495 0.236505
vt 0.611505 0.236505
vt 0.611505 0.236505
vt 0.625000 0.250000
vt 0.375000 0.500000
vt 0.375000 0.250000
vt 0.625000 0.500000
vt 0.375000 0.750000
vt 0.625000 0.750000
vt 0.375000 1.000000
vt 0.375000 0.500000
vt 0.125000 0.750000
vt 0.125000 0.500000
vt 0.875000 0.500000
vt 0.625000 0.500000
vt 0.375000 0.250000
vt 0.375000 0.000000
vt 0.388495 0.013495
vt 0.611505 0.013495
vt 0.625000 0.250000
vt 0.625000 0.000000
vt 0.611505 0.013495
vt 0.388495 0.013495
vt 0.388495 0.236505
vt 0.625000 0.750000
vt 0.625000 1.000000
vt 0.375000 0.750000
vt 0.875000 0.750000
vn 0.0000 0.0000 -1.0000
vn 0.0000 0.0000 1.0000
vn -1.0000 0.0000 0.0000
vn 0.0000 -1.0000 0.0000
vn 1.0000 0.0000 0.0000
vn 0.0000 1.0000 0.0000
usemtl Material.005
s 1
f 1/1/1 2/2/1 3/3/1
f 4/4/2 5/5/2 6/6/2
f 7/7/3 8/8/3 5/5/3
f 9/9/4 5/10/4 8/8/4
f 10/11/5 6/12/5 9/13/5
f 11/14/1 9/9/1 8/15/1
f 3/3/6 4/16/6 1/1/6
f 1/1/6 10/17/6 12/18/6
f 13/19/6 7/20/6 3/3/6
f 12/18/6 11/21/6 13/19/6
f 12/18/2 14/22/2 15/23/2
f 12/18/3 16/24/3 1/1/3
f 3/3/5 14/22/5 13/19/5
f 1/1/1 16/24/1 2/2/1
f 4/4/2 7/7/2 5/5/2
f 7/7/3 11/25/3 8/8/3
f 9/9/4 6/26/4 5/10/4
f 10/11/5 4/27/5 6/12/5
f 11/14/1 10/28/1 9/9/1
f 3/3/6 7/20/6 4/16/6
f 1/1/6 4/16/6 10/17/6
f 13/19/6 11/21/6 7/20/6
f 12/18/6 10/17/6 11/21/6
f 12/18/2 13/19/2 14/22/2
f 12/18/3 15/23/3 16/24/3
f 3/3/5 2/2/5 14/22/5
usemtl Material.006
f 14/22/6 16/24/6 15/23/6
f 14/22/6 2/2/6 16/24/6
