# Blender v2.80 (sub 75) OBJ File: 'Obsticle1Fix.blend'
# www.blender.org
mtllib Obsticle1Fix.mtl
o Cube
v 19.084356 3.849145 6.728776
v -19.372206 -5.036038 2.577835
v -18.760408 -4.922905 6.850293
v -19.388357 -5.036038 -2.453737
v 19.040751 3.849145 -6.851555
v 19.516634 3.974444 7.255357
v -18.804018 -4.922905 -6.730037
v 19.469637 3.974444 -7.380900
v -19.144295 -3.266718 6.851526
v -19.606539 -3.165610 2.578587
v -19.187901 -3.266718 -6.728805
v -19.622694 -3.165610 -2.452985
v 18.700470 5.505332 6.730008
v 19.282301 5.844872 7.256108
v 18.656868 5.505332 -6.850322
v 19.235304 5.844872 -7.380148
vt 0.570187 0.250000
vt 0.375000 0.500000
vt 0.375000 0.250000
vt 0.570187 0.750000
vt 0.375000 0.750000
vt 0.625000 0.832028
vt 0.375000 1.000000
vt 0.621692 0.240982
vt 0.621692 0.009018
vt 0.621692 0.009018
vt 0.378308 0.240982
vt 0.624659 0.250000
vt 0.375000 0.167972
vt 0.625000 0.000000
vt 0.625000 0.250000
vt 0.375000 0.082028
vt 0.624659 0.000000
vt 0.625000 0.500000
vt 0.820187 0.750000
vt 0.621692 0.240982
vt 0.378308 0.009018
vt 0.378308 0.009018
vt 0.570187 0.500000
vt 0.625000 0.917972
vt 0.820187 0.500000
vt 0.378308 0.240982
vn -0.1224 -0.0149 -0.9924
vn 0.9922 0.1243 -0.0032
vn 0.2258 -0.9742 -0.0007
vn -0.9742 -0.2258 0.0031
vn 0.2312 -0.9718 0.0465
vn -0.5051 0.8630 0.0016
vn -0.1600 0.9006 -0.4042
vn -0.1160 -0.0149 0.9931
vn 0.0032 -0.0000 1.0000
vn -0.0032 0.0000 -1.0000
vn -0.2101 0.9111 0.3546
vn 0.2254 -0.9731 -0.0474
usemtl Material
s off
f 12/1/1 8/2/1 4/3/1
f 8/2/2 14/4/2 6/5/2
f 2/6/3 8/7/3 6/5/3
f 15/8/4 1/9/4 13/10/4
f 11/11/5 16/12/5 12/13/5
f 15/8/6 14/14/6 16/15/6
f 13/10/7 10/16/7 14/17/7
f 6/18/8 10/19/8 2/6/8
f 11/11/9 5/20/9 15/8/9
f 13/10/10 3/21/10 9/22/10
f 12/1/1 16/23/1 8/2/1
f 8/2/2 16/23/2 14/4/2
f 2/6/3 4/24/3 8/7/3
f 15/8/4 5/20/4 1/9/4
f 11/11/11 15/8/11 16/12/11
f 15/8/6 13/10/6 14/14/6
f 13/10/12 9/22/12 10/16/12
f 6/18/8 14/25/8 10/19/8
f 11/11/9 7/26/9 5/20/9
f 13/10/10 1/9/10 3/21/10
