# Blender v2.80 (sub 75) OBJ File: 'scene.blend'
# www.blender.org
mtllib Obsticle1.mtl
o Cube.001
v 52.362679 -8.350628 1.888853
v -6.480412 2.392527 9.114648
v 52.010086 -11.164934 1.888853
v -6.127821 5.206833 9.114648
v -6.480412 2.392528 -12.907645
v 52.010086 -11.164934 -5.681851
v -5.254929 4.695950 8.320255
v -5.832537 2.203998 -12.113253
v -5.254929 4.695950 -12.113253
v 51.687817 -8.502759 8.320255
v 52.362679 -8.350628 -5.681851
v -6.127821 5.206835 -12.907645
v 51.110207 -10.994711 8.320255
v -5.832537 2.203997 8.320255
v 51.110207 -10.994711 -12.113253
v 51.687817 -8.502758 -12.113253
vt 0.570187 0.250000
vt 0.375000 0.500000
vt 0.375000 0.250000
vt 0.570187 0.500000
vt 0.375000 0.750000
vt 0.625000 0.832028
vt 0.375000 1.000000
vt 0.621692 0.240982
vt 0.621692 0.009018
vt 0.621692 0.009018
vt 0.378308 0.240982
vt 0.624659 0.250000
vt 0.375000 0.167972
vt 0.625000 0.250000
vt 0.375000 0.082028
vt 0.624659 0.000000
vt 0.625000 0.500000
vt 0.820187 0.750000
vt 0.378308 0.240982
vt 0.621692 0.240982
vt 0.378308 0.009018
vt 0.378308 0.009018
vt 0.570187 0.750000
vt 0.625000 0.917972
vt 0.625000 0.000000
vt 0.820187 0.500000
vn 0.1192 -0.0149 0.9928
vn -0.9922 0.1243 0.0000
vn -0.2258 -0.9742 -0.0000
vn 0.9742 -0.2258 0.0000
vn -0.2311 -0.9718 -0.0472
vn 0.5051 0.8630 0.0000
vn 0.1587 0.9006 0.4047
vn 0.1192 -0.0149 -0.9928
vn 0.0000 0.0000 -1.0000
vn -0.0000 0.0000 1.0000
vn 0.2112 0.9111 -0.3539
vn -0.2256 -0.9731 0.0467
usemtl Material.003
s 1
f 1/1/1 2/2/1 3/3/1
f 4/4/2 5/5/2 2/2/2
f 6/6/3 2/7/3 5/5/3
f 7/8/4 8/9/4 9/10/4
f 10/11/5 4/12/5 1/13/5
f 9/10/6 4/14/6 7/8/6
f 9/10/7 11/15/7 12/16/7
f 5/17/8 11/18/8 6/6/8
f 7/8/9 13/19/9 14/20/9
f 9/10/10 15/21/10 16/22/10
f 1/1/1 4/4/1 2/2/1
f 4/4/2 12/23/2 5/5/2
f 6/6/3 3/24/3 2/7/3
f 7/8/4 14/20/4 8/9/4
f 10/11/11 7/8/11 4/12/11
f 9/10/6 12/25/6 4/14/6
f 9/10/12 16/22/12 11/15/12
f 5/17/8 12/26/8 11/18/8
f 7/8/9 10/11/9 13/19/9
f 9/10/10 8/9/10 15/21/10
