# Blender v2.80 (sub 75) OBJ File: 'boarder4.blend'
# www.blender.org
mtllib boarder4.mtl
o Cube.001
v -7.725804 -0.641861 -15.552319
v -7.725804 -0.401660 -15.573080
v 8.995213 -0.641861 -15.552319
v 8.995213 -0.401660 -15.573080
v 7.925404 1.540199 6.893412
v 7.916308 1.275380 6.911479
v 8.411118 1.462590 5.995513
v 8.401449 1.198836 6.014632
v -7.454710 1.380649 5.047493
v -7.444641 1.118018 5.067715
v -7.668954 1.295779 4.065583
v -7.658660 1.034311 4.086938
v -4.456146 1.734261 9.138638
v -4.449694 1.466779 9.154034
v -5.281800 1.677207 8.478537
v -5.274325 1.410506 8.494722
v 5.765548 1.734262 9.138641
v 5.759095 1.466778 9.154037
v 4.852445 1.782337 9.694849
v 4.847134 1.514192 9.709576
v 8.995213 1.275522 3.831213
v 9.015734 0.977756 3.424297
v 0.654705 1.870965 10.720245
v 0.654705 1.601603 10.733730
v 8.978361 1.295779 4.065582
v 8.968069 1.034311 4.086937
v -6.005879 1.612148 7.725834
v -5.997519 1.346341 7.742918
v 9.012892 0.935641 2.701479
v 9.014997 0.919627 2.743212
v 9.012121 0.916209 2.703158
v -6.615998 1.540198 6.893410
v -6.606903 1.275380 6.911477
v -2.558109 1.820609 10.137644
v -2.554036 1.551938 10.151836
v -3.543036 1.782337 9.694849
v -3.537724 1.514192 9.709576
v -7.725804 1.227434 3.274855
v -7.734667 1.055581 3.079875
v -7.730440 0.949145 3.089075
v 6.591204 1.677207 8.478540
v 6.583729 1.410508 8.494728
v 9.014954 0.916208 2.703158
v -7.101712 1.462590 5.995508
v -7.092044 1.198835 6.014627
v -1.518210 1.848424 10.459452
v -1.515452 1.579371 10.473253
v -0.441131 1.865306 10.654766
v -0.439739 1.596020 10.668331
v 1.750533 1.865306 10.654768
v 1.749141 1.596020 10.668331
v 2.827611 1.848424 10.459454
v 2.824853 1.579371 10.473257
v 3.867518 1.820609 10.137644
v 3.863446 1.551939 10.151836
v 7.315289 1.612148 7.725834
v 7.306928 1.346342 7.742918
v -7.725804 1.191430 2.858298
v -7.713035 1.176079 2.680697
v -7.702712 0.916208 2.703158
v 8.764118 1.380649 5.047491
v 8.754049 1.118019 5.067713
v -7.725804 1.176079 2.680696
v -7.745546 0.916208 2.703159
v 7.157603 1.592675 7.500541
v 7.156971 1.327574 7.523009
v 2.775855 1.823592 10.172155
v 2.775646 1.555588 10.194605
v 8.781420 1.283483 3.923312
v 8.780642 1.022266 3.945796
v 6.450609 1.656258 8.236174
v 6.450045 1.390357 8.258636
v -7.263756 1.366427 4.882949
v -7.262995 1.104167 4.905431
v 5.644443 1.712019 8.881302
v 5.643955 1.445418 8.903761
v -6.919091 1.446509 5.809461
v -6.918360 1.183244 5.831938
v 8.572233 1.366427 4.882948
v 8.571471 1.104168 4.905428
v 1.724200 1.840091 10.363037
v 1.724095 1.571880 10.385485
v -3.444416 1.759003 9.424892
v -3.444015 1.491811 9.447348
v -5.849125 1.592675 7.500541
v -5.848493 1.327572 7.523008
v -4.335972 1.712019 8.881296
v -4.335485 1.445417 8.903755
v -6.444842 1.522357 6.686997
v -6.444155 1.258139 6.709471
v -7.515970 1.166480 2.569639
v -7.515189 0.906729 2.592091
v -1.467385 1.823592 10.172152
v -1.467176 1.555588 10.194601
v 3.791215 1.796408 9.857645
v 3.790907 1.528746 9.880096
v -5.142137 1.656258 8.236170
v -5.141572 1.390358 8.258633
v 0.654239 1.845622 10.427031
v 0.654239 1.577343 10.449478
v -0.415731 1.840091 10.363037
v -0.415625 1.571880 10.385485
v -2.482738 1.796408 9.857645
v -2.482430 1.528746 9.880096
v 7.753317 1.522358 6.687001
v 7.752629 1.258139 6.709472
v 8.227565 1.446509 5.809467
v 8.226834 1.183244 5.831943
v -7.472943 1.283483 3.923313
v -7.472166 1.022265 3.945796
v 4.752893 1.759004 9.424892
v 4.752492 1.491812 9.447348
v -7.539102 1.194316 2.891690
v -7.539102 1.203871 3.002243
v -7.540236 0.936494 2.940842
v -7.540236 0.941377 2.998057
v -7.532794 -0.376290 -15.279564
v -7.532794 -0.616808 -15.258776
v -7.541112 1.166480 2.569640
v -7.542606 0.906729 2.592091
v 8.810816 1.248110 3.514063
v 8.812368 0.984565 3.504066
v -7.532794 -0.401660 -15.573080
v -7.532794 -0.641861 -15.552319
v -7.541668 1.072362 1.480740
v -7.540605 1.072362 1.480740
v -7.542007 0.813785 1.503090
v -7.543155 0.813784 1.503090
v 8.810318 1.154242 2.428047
v 8.811392 1.152948 2.413083
v 8.811781 0.891978 2.419257
v 8.812939 0.890602 2.403131
v -7.539674 0.899745 -0.516370
v -7.540620 0.598506 -1.019270
v 8.802965 -0.401660 -15.573080
v 8.802965 -0.641861 -15.552319
vt 0.625000 0.250000
vt 0.375000 0.252886
vt 0.375000 0.250000
vt 0.625000 0.500000
vt 0.625000 0.684040
vt 0.393799 0.672959
vt 0.128001 0.661578
vt 0.128027 0.671894
vt 0.125000 0.672947
vt 0.627770 0.670732
vt 0.627763 0.681032
vt 0.125000 0.989029
vt 0.145833 0.986663
vt 0.125000 0.986663
vt 0.083333 0.989014
vt 0.104167 0.986663
vt 0.083333 0.986663
vt 0.062500 0.989006
vt 0.062500 0.986663
vt 0.187500 0.989045
vt 0.208333 0.986663
vt 0.187500 0.986663
vt 0.458333 0.986663
vt 0.479167 0.988987
vt 0.479167 0.986663
vt 0.145833 0.989036
vt 0.166667 0.986663
vt 0.270833 0.986663
vt 0.291667 0.989048
vt 0.291667 0.986663
vt 0.312500 0.989045
vt 0.312500 0.986663
vt 0.375000 0.986663
vt 0.395833 0.989022
vt 0.395833 0.986663
vt 0.229167 0.989050
vt 0.250000 0.986663
vt 0.229167 0.986663
vt 0.354167 0.986663
vt 0.375000 0.989029
vt 0.625000 0.076872
vt 0.375000 0.077053
vt 0.625000 0.075188
vt 0.477164 0.073321
vt 0.625000 0.071237
vt 0.104167 0.989022
vt 0.503284 0.938078
vt 0.502054 0.938324
vt 0.502054 0.938000
vt 0.208333 0.989048
vt 0.493001 0.988981
vt 0.484054 0.986663
vt 0.508059 0.988974
vt 0.508058 0.988801
vt 0.507222 0.988974
vt 0.041667 0.988997
vt 0.041667 0.986663
vt 1.000000 0.988031
vt 0.991951 0.986663
vt 0.991941 0.988974
vt 0.502146 0.811692
vt 0.502054 0.811698
vt 0.502054 0.811676
vt 0.416667 0.986663
vt 0.437500 0.989006
vt 0.437500 0.986663
vt 0.020833 0.986663
vt 0.000000 0.988031
vt 0.020833 0.988987
vt 0.333333 0.989041
vt 0.333333 0.986663
vt 0.458333 0.988997
vt 0.354167 0.989036
vt 0.270833 0.989050
vt 0.166667 0.989041
vt 0.416667 0.989014
vt 0.479167 0.987840
vt 0.458333 0.987660
vt 0.479167 0.987660
vt 0.416667 0.987842
vt 0.395833 0.987660
vt 0.416667 0.987660
vt 0.312500 0.987844
vt 0.291667 0.987660
vt 0.312500 0.987660
vt 0.291667 0.987844
vt 0.270833 0.987660
vt 0.083333 0.987660
vt 0.062500 0.987841
vt 0.062500 0.987660
vt 0.208333 0.987660
vt 0.187500 0.987844
vt 0.187500 0.987660
vt 0.145833 0.987660
vt 0.125000 0.987843
vt 0.125000 0.987660
vt 0.166667 0.987844
vt 0.166667 0.987660
vt 0.517288 0.072755
vt 0.497930 0.073583
vt 0.517288 0.073828
vt 0.000610 0.987839
vt 0.020833 0.987660
vt 0.020833 0.987840
vt 0.488946 0.250000
vt 0.515637 0.106869
vt 0.496018 0.111971
vt 0.270833 0.987844
vt 0.250000 0.987660
vt 0.502753 0.938239
vt 0.502658 0.938038
vt 0.502658 0.938250
vt 0.395833 0.987842
vt 0.375000 0.987660
vt 0.041667 0.987660
vt 0.437500 0.987841
vt 0.437500 0.987660
vt 0.354167 0.987844
vt 0.333333 0.987660
vt 0.354167 0.987660
vt 0.229167 0.987845
vt 0.229167 0.987660
vt 0.208333 0.987844
vt 0.104167 0.987660
vt 0.083333 0.987842
vt 0.991946 0.987839
vt 0.998821 0.987660
vt 0.999390 0.987839
vt 0.145833 0.987844
vt 0.104167 0.987842
vt 0.766085 0.748758
vt 0.765705 0.745991
vt 0.781429 0.744181
vt 0.458333 0.987841
vt 0.517485 0.682207
vt 0.497587 0.671362
vt 0.498117 0.681877
vt 0.375000 0.987843
vt 0.041667 0.987841
vt 0.333333 0.987844
vt 0.488595 0.987839
vt 0.487902 0.987660
vt 0.217961 0.746558
vt 0.203551 0.740939
vt 0.218680 0.743918
vt 0.509950 0.076955
vt 0.489336 0.101419
vt 0.508896 0.096317
vt 0.501104 0.239443
vt 0.481652 0.242290
vt 0.500949 0.242289
vt 0.510293 0.682085
vt 0.481646 0.507711
vt 0.491013 0.681756
vt 0.502718 0.938243
vt 0.502623 0.938246
vt 0.502623 0.938255
vt 0.488849 0.987905
vt 0.487840 0.987727
vt 0.488159 0.987727
vt 0.872247 0.661747
vt 0.872217 0.642805
vt 0.875000 0.673128
vt 0.625000 0.497126
vt 0.375000 0.500000
vt 0.375000 0.497126
vt 0.497270 0.087520
vt 0.517164 0.076950
vt 0.497811 0.076964
vt 0.375000 0.673326
vt 0.375000 0.679779
vt 0.371966 0.680534
vt 0.625000 0.252886
vt 0.375000 0.672947
vt 0.125000 0.500000
vt 0.127999 0.637681
vt 0.127886 0.500000
vt 0.127889 0.502781
vt 0.128018 0.661578
vt 0.627754 0.670590
vt 0.627874 0.500000
vt 0.250000 0.989051
vt 0.503284 0.938175
vt 1.000000 0.988978
vt 0.995655 0.986663
vt 0.004343 0.986663
vt 0.000000 0.988978
vt 0.497925 0.073028
vt 0.001179 0.987660
vt 0.508334 0.250000
vt 0.250000 0.987845
vt 0.502753 0.938044
vt 0.991947 0.987660
vt 0.625252 0.686263
vt 0.628197 0.684914
vt 0.633733 0.704567
vt 0.628455 0.695576
vt 0.636477 0.702803
vt 0.631322 0.694016
vt 0.650117 0.720979
vt 0.640995 0.713084
vt 0.643567 0.711126
vt 0.673288 0.734378
vt 0.660943 0.728118
vt 0.663046 0.725819
vt 0.652474 0.718842
vt 0.701665 0.743853
vt 0.686940 0.739654
vt 0.688428 0.737093
vt 0.675099 0.731938
vt 0.733317 0.748758
vt 0.717213 0.746906
vt 0.717988 0.744181
vt 0.702806 0.741198
vt 0.749701 0.749379
vt 0.733711 0.745991
vt 0.749708 0.746598
vt 0.797736 0.743853
vt 0.782189 0.746906
vt 0.796610 0.741198
vt 0.826115 0.734378
vt 0.812462 0.739654
vt 0.824318 0.731938
vt 0.810988 0.737093
vt 0.849285 0.720979
vt 0.838459 0.728118
vt 0.846941 0.718842
vt 0.836371 0.725819
vt 0.865669 0.704567
vt 0.858407 0.713083
vt 0.862939 0.702803
vt 0.855848 0.711126
vt 0.874150 0.686263
vt 0.870947 0.695576
vt 0.868092 0.694015
vt 0.875000 0.674812
vt 0.875000 0.678763
vt 0.872208 0.676177
vt 0.871220 0.684914
vt 0.872239 0.672075
vt 0.874809 0.673128
vt 0.872209 0.675129
vt 0.871862 0.672074
vt 0.516957 0.671678
vt 0.125639 0.672947
vt 0.128003 0.671893
vt 0.128067 0.675198
vt 0.128000 0.675741
vt 0.125232 0.676603
vt 0.129527 0.695348
vt 0.126319 0.686056
vt 0.132224 0.693811
vt 0.129118 0.684718
vt 0.142052 0.712815
vt 0.134802 0.704319
vt 0.137390 0.702588
vt 0.161936 0.727814
vt 0.151148 0.720692
vt 0.153368 0.718608
vt 0.144470 0.710902
vt 0.187824 0.739323
vt 0.174232 0.734060
vt 0.175932 0.731689
vt 0.163913 0.725578
vt 0.202485 0.743513
vt 0.189220 0.736839
vt 0.250298 0.749026
vt 0.233990 0.748406
vt 0.234348 0.745727
vt 0.282635 0.746558
vt 0.266606 0.748406
vt 0.281902 0.743918
vt 0.266233 0.745726
vt 0.312772 0.739323
vt 0.298112 0.743513
vt 0.311362 0.736839
vt 0.297032 0.740938
vt 0.338660 0.727814
vt 0.326365 0.734061
vt 0.336669 0.725578
vt 0.324650 0.731689
vt 0.358546 0.712815
vt 0.349449 0.720692
vt 0.356107 0.710901
vt 0.347215 0.718608
vt 0.371069 0.695348
vt 0.365795 0.704319
vt 0.363193 0.702588
vt 0.374278 0.686056
vt 0.368347 0.693810
vt 0.371484 0.684719
vt 0.250290 0.746333
vt 0.490685 0.076969
vt 0.481806 0.239444
vt 0.500943 0.507711
vt 0.502718 0.938235
vt 0.488505 0.987905
vt 0.872114 0.502784
vt 0.875000 0.500000
vt 0.872114 0.500000
vt 0.872231 0.661747
vt 0.516625 0.087507
vt 0.371974 0.670257
vt 0.371992 0.670104
vt 0.374958 0.672947
vt 0.372126 0.500000
vn 0.0000 -0.0861 -0.9963
vn 0.9973 0.0728 -0.0063
vn -0.0000 -0.9964 0.0850
vn 0.0000 0.9963 -0.0861
vn -0.6254 0.0298 0.7797
vn -0.8070 0.0126 0.5904
vn -0.8796 0.0022 0.4756
vn -0.2964 0.0459 0.9539
vn 0.9764 -0.0209 0.2149
vn -0.5213 0.0365 0.8526
vn 0.1790 0.0486 0.9827
vn 0.2964 0.0459 0.9539
vn 0.7214 0.0218 0.6921
vn -0.0598 0.0499 0.9970
vn 0.6254 0.0298 0.7797
vn -0.9971 0.0751 -0.0075
vn -0.9984 0.0571 -0.0049
vn -0.7214 0.0218 0.6921
vn 0.0000 0.0861 0.9963
vn -0.1790 0.0486 0.9827
vn 0.9967 -0.0332 0.0745
vn 0.9967 -0.0453 -0.0677
vn -0.9368 -0.0090 0.3496
vn -0.9967 -0.0454 -0.0677
vn 0.8796 0.0022 0.4756
vn -0.9967 -0.0332 0.0745
vn 0.4110 0.0419 0.9107
vn -0.9764 -0.0209 0.2149
vn 0.9368 -0.0090 0.3496
vn 0.5213 0.0365 0.8526
vn 0.0598 0.0499 0.9970
vn -0.4110 0.0419 0.9107
vn 0.8070 0.0126 0.5904
vn -0.9772 -0.0153 -0.2117
vn -0.8079 -0.0479 -0.5874
vn -0.2969 -0.0795 -0.9516
vn -0.1792 -0.0820 -0.9804
vn 0.8805 -0.0379 -0.4726
vn 0.2969 -0.0795 -0.9516
vn 0.6262 -0.0643 -0.7770
vn 0.4116 -0.0757 -0.9082
vn 1.0000 -0.0043 0.0004
vn 0.9974 -0.0032 -0.0714
vn 1.0000 -0.0047 0.0010
vn -0.0599 -0.0832 -0.9947
vn -0.7223 -0.0567 -0.6893
vn 0.9772 -0.0153 -0.2117
vn -0.8805 -0.0379 -0.4726
vn -0.5220 -0.0707 -0.8500
vn 0.0599 -0.0832 -0.9947
vn 0.1792 -0.0820 -0.9804
vn 0.8079 -0.0479 -0.5874
vn 0.9974 0.0091 0.0709
vn 0.5220 -0.0707 -0.8500
vn 0.7223 -0.0567 -0.6893
vn -0.9377 -0.0270 -0.3465
vn -1.0000 -0.0059 0.0010
vn -0.6262 -0.0643 -0.7770
vn 0.9377 -0.0270 -0.3465
vn -0.4116 -0.0757 -0.9082
vn -0.9974 -0.0032 -0.0714
vn 1.0000 -0.0056 0.0015
vn 1.0000 0.0000 0.0000
vn -1.0000 -0.0059 0.0011
vn 0.0002 -0.0862 -0.9963
vn -0.9974 -0.0032 -0.0713
vn 1.0000 -0.0057 0.0010
vn 0.9945 0.1047 -0.0100
vn 1.0000 -0.0001 -0.0010
vn 0.9967 0.0804 -0.0086
vn 0.0003 -0.9964 0.0851
vn 0.0001 0.9963 -0.0861
vn -1.0000 -0.0000 0.0000
vn 0.9967 -0.0331 0.0745
vn -0.9967 -0.0331 0.0745
vn 1.0000 0.0000 0.0005
vn -1.0000 -0.0056 0.0009
vn -1.0000 0.0000 0.0005
vn 0.0006 -0.0861 -0.9963
vn -0.0002 0.9963 -0.0861
vn 1.0000 -0.0053 0.0009
vn -0.0002 -0.9964 0.0852
usemtl None
s off
f 2/1/1 124/2/1 1/3/1
f 4/4/2 21/5/2 29/6/2
f 128/7/3 120/8/3 64/9/3
f 129/10/4 121/11/4 21/5/4
f 16/12/5 13/13/5 15/14/5
f 33/15/6 27/16/6 32/17/6
f 45/18/7 32/17/7 44/19/7
f 35/20/8 46/21/8 34/22/8
f 61/23/9 26/24/9 25/25/9
f 14/26/10 36/27/10 13/13/10
f 50/28/11 53/29/11 52/30/11
f 52/30/12 55/31/12 54/32/12
f 41/33/13 57/34/13 56/35/13
f 49/36/14 23/37/14 48/38/14
f 17/39/15 42/40/15 41/33/15
f 63/41/16 1/3/16 64/42/16
f 58/43/17 39/44/17 38/45/17
f 28/46/18 15/14/18 27/16/18
f 59/47/19 64/48/19 60/49/19
f 47/50/20 48/38/20 46/21/20
f 25/25/21 22/51/21 21/52/21
f 31/53/22 29/54/22 30/55/22
f 10/56/23 44/19/23 9/57/23
f 39/58/24 59/59/24 60/60/24
f 29/61/19 31/62/19 43/63/19
f 5/64/25 8/65/25 7/66/25
f 11/67/26 39/68/26 12/69/26
f 54/32/27 20/70/27 19/71/27
f 12/69/28 9/57/28 11/67/28
f 7/66/29 62/72/29 61/23/29
f 19/71/30 18/73/30 17/39/30
f 23/37/31 51/74/31 50/28/31
f 37/75/32 34/22/32 36/27/32
f 56/35/33 6/76/33 5/64/33
f 70/77/34 79/78/34 69/79/34
f 106/80/35 65/81/35 105/82/35
f 96/83/36 67/84/36 95/85/36
f 68/86/37 81/87/37 67/84/37
f 89/88/38 78/89/38 77/90/38
f 93/91/39 104/92/39 103/93/39
f 87/94/40 98/95/40 97/96/40
f 103/93/41 84/97/41 83/98/41
f 114/99/42 115/100/42 113/101/42
f 116/102/43 109/103/43 110/104/43
f 118/105/44 133/106/44 134/107/44
f 82/108/45 99/109/45 81/87/45
f 119/110/1 92/111/1 120/112/1
f 66/113/46 71/114/46 65/81/46
f 73/115/47 110/104/47 109/103/47
f 108/116/48 105/82/48 107/117/48
f 76/118/49 111/119/49 75/120/49
f 99/109/50 102/121/50 101/122/50
f 101/122/51 94/123/51 93/91/51
f 85/124/52 90/125/52 89/88/52
f 92/126/53 113/127/53 115/128/53
f 83/98/54 88/129/54 87/94/54
f 97/96/55 86/130/55 85/124/55
f 48/131/4 101/132/4 93/133/4
f 80/134/56 107/117/56 79/78/56
f 121/135/57 131/136/57 122/137/57
f 72/138/58 75/120/58 71/114/58
f 77/90/59 74/139/59 73/115/59
f 112/140/60 95/85/60 111/119/60
f 122/141/61 69/79/61 121/142/61
f 47/143/3 104/144/3 94/145/3
f 125/146/62 134/147/62 133/148/62
f 117/149/63 124/150/63 123/151/63
f 130/152/64 136/153/64 132/154/64
f 125/155/65 127/156/65 128/157/65
f 132/158/66 129/159/66 130/160/66
f 125/161/4 133/162/4 63/163/4
f 135/164/1 3/165/1 136/166/1
f 127/167/67 119/168/67 120/169/67
f 30/170/3 22/171/3 122/172/3
f 2/1/1 123/173/1 124/2/1
f 43/174/68 3/165/68 29/6/68
f 3/165/69 4/4/69 29/6/69
f 21/5/70 22/171/70 29/6/70
f 22/171/68 30/170/68 29/6/68
f 64/9/3 1/175/3 134/176/3
f 1/175/3 124/177/3 118/178/3
f 134/176/3 1/175/3 118/178/3
f 128/7/71 127/179/71 120/8/71
f 134/176/3 128/7/3 64/9/3
f 21/5/4 4/4/4 130/180/4
f 4/4/4 135/181/4 130/180/4
f 130/180/72 129/10/72 21/5/72
f 16/12/5 14/26/5 13/13/5
f 33/15/6 28/46/6 27/16/6
f 45/18/7 33/15/7 32/17/7
f 35/20/8 47/50/8 46/21/8
f 61/23/9 62/72/9 26/24/9
f 14/26/10 37/75/10 36/27/10
f 50/28/11 51/74/11 53/29/11
f 52/30/12 53/29/12 55/31/12
f 41/33/13 42/40/13 57/34/13
f 49/36/14 24/182/14 23/37/14
f 17/39/15 18/73/15 42/40/15
f 63/41/73 2/1/73 1/3/73
f 28/46/18 16/12/18 15/14/18
f 59/47/19 63/183/19 64/48/19
f 47/50/20 49/36/20 48/38/20
f 25/25/74 26/24/74 22/51/74
f 10/56/23 45/18/23 44/19/23
f 60/60/24 40/184/24 39/58/24
f 39/58/24 58/185/24 59/59/24
f 5/64/25 6/76/25 8/65/25
f 38/186/75 39/68/75 11/67/75
f 39/68/75 40/187/75 12/69/75
f 54/32/27 55/31/27 20/70/27
f 12/69/28 10/56/28 9/57/28
f 7/66/29 8/65/29 62/72/29
f 19/71/30 20/70/30 18/73/30
f 23/37/31 24/182/31 51/74/31
f 37/75/32 35/20/32 34/22/32
f 56/35/33 57/34/33 6/76/33
f 70/77/34 80/134/34 79/78/34
f 106/80/35 66/113/35 65/81/35
f 96/83/36 68/86/36 67/84/36
f 68/86/37 82/108/37 81/87/37
f 89/88/38 90/125/38 78/89/38
f 93/91/39 94/123/39 104/92/39
f 87/94/40 88/129/40 98/95/40
f 103/93/41 104/92/41 84/97/41
f 114/99/42 116/188/42 115/100/42
f 116/102/43 114/189/43 109/103/43
f 118/105/76 117/190/76 133/106/76
f 82/108/45 100/191/45 99/109/45
f 119/110/1 91/192/1 92/111/1
f 66/113/46 72/138/46 71/114/46
f 73/115/47 74/139/47 110/104/47
f 108/116/48 106/80/48 105/82/48
f 76/118/49 112/140/49 111/119/49
f 99/109/50 100/191/50 102/121/50
f 101/122/51 102/121/51 94/123/51
f 85/124/52 86/130/52 90/125/52
f 92/126/53 91/193/53 113/127/53
f 83/98/54 84/97/54 88/129/54
f 97/96/55 98/95/55 86/130/55
f 25/194/4 21/5/4 69/195/4
f 21/5/4 121/11/4 69/195/4
f 7/196/4 61/197/4 107/198/4
f 61/197/4 25/194/4 79/199/4
f 56/200/4 5/201/4 105/202/4
f 5/201/4 7/196/4 107/198/4
f 105/202/4 5/201/4 107/198/4
f 17/203/4 41/204/4 71/205/4
f 41/204/4 56/200/4 65/206/4
f 54/207/4 19/208/4 111/209/4
f 19/208/4 17/203/4 75/210/4
f 111/209/4 19/208/4 75/210/4
f 50/211/4 52/212/4 67/213/4
f 52/212/4 54/207/4 95/214/4
f 48/131/4 23/215/4 101/132/4
f 23/215/4 50/211/4 81/216/4
f 101/132/4 23/215/4 99/217/4
f 34/218/4 46/219/4 103/220/4
f 46/219/4 48/131/4 93/133/4
f 13/221/4 36/222/4 87/223/4
f 36/222/4 34/218/4 83/224/4
f 87/223/4 36/222/4 83/224/4
f 27/225/4 15/226/4 85/227/4
f 15/226/4 13/221/4 97/228/4
f 44/229/4 32/230/4 77/231/4
f 32/230/4 27/225/4 89/232/4
f 11/233/4 9/234/4 73/235/4
f 9/234/4 44/229/4 77/231/4
f 73/235/4 9/234/4 77/231/4
f 58/236/4 38/237/4 114/238/4
f 38/237/4 11/233/4 109/239/4
f 114/238/4 38/237/4 109/239/4
f 119/240/4 63/163/4 59/241/4
f 59/241/4 58/236/4 113/242/4
f 15/226/4 97/228/4 85/227/4
f 46/219/4 93/133/4 103/220/4
f 52/212/4 95/214/4 67/213/4
f 95/214/4 54/207/4 111/209/4
f 61/197/4 79/199/4 107/198/4
f 25/194/4 69/195/4 79/199/4
f 58/236/4 114/238/4 113/242/4
f 109/239/4 11/233/4 73/235/4
f 91/243/4 119/240/4 113/242/4
f 119/240/4 59/241/4 113/242/4
f 56/200/4 105/202/4 65/206/4
f 41/204/4 65/206/4 71/205/4
f 89/232/4 77/231/4 32/230/4
f 17/203/4 71/205/4 75/210/4
f 85/227/4 89/232/4 27/225/4
f 87/223/4 97/228/4 13/221/4
f 50/211/4 67/213/4 81/216/4
f 81/216/4 99/217/4 23/215/4
f 103/220/4 83/224/4 34/218/4
f 80/134/56 108/116/56 107/117/56
f 121/135/77 129/244/77 131/136/77
f 72/138/58 76/118/58 75/120/58
f 77/90/59 78/89/59 74/139/59
f 112/140/60 96/83/60 95/85/60
f 122/141/61 70/77/61 69/79/61
f 60/245/3 64/9/3 120/8/3
f 120/8/3 92/246/3 115/247/3
f 120/8/3 115/247/3 60/245/3
f 115/247/3 116/248/3 40/249/3
f 60/245/3 115/247/3 40/249/3
f 10/250/3 12/251/3 74/252/3
f 12/251/3 40/249/3 110/253/3
f 33/254/3 45/255/3 78/256/3
f 45/255/3 10/250/3 78/256/3
f 16/257/3 28/258/3 86/259/3
f 28/258/3 33/254/3 90/260/3
f 86/259/3 28/258/3 90/260/3
f 37/261/3 14/262/3 88/263/3
f 14/262/3 16/257/3 98/264/3
f 88/263/3 14/262/3 98/264/3
f 47/143/3 35/265/3 104/144/3
f 35/265/3 37/261/3 84/266/3
f 24/267/3 49/268/3 102/269/3
f 49/268/3 47/143/3 94/145/3
f 102/269/3 49/268/3 94/145/3
f 53/270/3 51/271/3 68/272/3
f 51/271/3 24/267/3 82/273/3
f 20/274/3 55/275/3 112/276/3
f 55/275/3 53/270/3 96/277/3
f 112/276/3 55/275/3 96/277/3
f 42/278/3 18/279/3 72/280/3
f 18/279/3 20/274/3 76/281/3
f 6/282/3 57/283/3 106/284/3
f 57/283/3 42/278/3 66/285/3
f 106/284/3 57/283/3 66/285/3
f 62/286/3 8/287/3 108/288/3
f 8/287/3 6/282/3 108/288/3
f 22/171/3 26/289/3 122/172/3
f 26/289/3 62/286/3 80/290/3
f 70/291/3 122/172/3 26/289/3
f 80/290/3 70/291/3 26/289/3
f 18/279/3 76/281/3 72/280/3
f 51/271/3 82/273/3 68/272/3
f 100/292/3 24/267/3 102/269/3
f 35/265/3 84/266/3 104/144/3
f 84/266/3 37/261/3 88/263/3
f 40/249/3 116/248/3 110/253/3
f 108/288/3 80/290/3 62/286/3
f 12/251/3 110/253/3 74/252/3
f 106/284/3 108/288/3 6/282/3
f 10/250/3 74/252/3 78/256/3
f 33/254/3 78/256/3 90/260/3
f 72/280/3 66/285/3 42/278/3
f 16/257/3 86/259/3 98/264/3
f 112/276/3 76/281/3 20/274/3
f 68/272/3 96/277/3 53/270/3
f 100/292/3 82/273/3 24/267/3
f 125/146/62 128/293/62 134/147/62
f 117/149/63 118/294/63 124/150/63
f 130/152/78 135/295/78 136/153/78
f 125/155/79 126/296/79 127/156/79
f 132/158/66 131/297/66 129/159/66
f 133/162/4 117/298/4 2/299/4
f 117/298/4 123/300/4 2/299/4
f 2/299/4 63/163/4 133/162/4
f 63/163/4 119/240/4 125/161/4
f 119/240/80 126/301/80 125/161/80
f 135/164/1 4/4/1 3/165/1
f 127/167/81 126/302/81 119/168/81
f 122/172/3 131/303/3 30/170/3
f 131/303/3 132/304/3 31/305/3
f 132/304/3 136/306/3 3/165/3
f 3/165/3 43/174/3 132/304/3
f 43/174/82 31/305/82 132/304/82
f 31/305/3 30/170/3 131/303/3
